HIERARCHY
ROOT Hips
{
	OFFSET 0.000000 88.474243 0.000000
	CHANNELS 6 Xposition Yposition Zposition Zrotation Yrotation Xrotation 
	JOINT Hips_Spine
	{
		OFFSET 0.000000 0.000000 0.000000
		CHANNELS 3 Zrotation Yrotation Xrotation
		JOINT Spine
		{
			OFFSET 0.005100 8.711998 -0.691000
			CHANNELS 3 Zrotation Yrotation Xrotation
			JOINT Spine1
			{
				OFFSET -0.009200 8.660301 -1.275000
				CHANNELS 3 Zrotation Yrotation Xrotation
				JOINT Spine2
				{
					OFFSET 0.006300 9.852501 -1.857000
					CHANNELS 3 Zrotation Yrotation Xrotation
					JOINT Spine2_Neck
					{
						OFFSET 0.000000 0.000000 0.000000
						CHANNELS 3 Zrotation Yrotation Xrotation
						JOINT Neck
						{
							OFFSET 0.016300 11.420799 -0.263300
							CHANNELS 3 Zrotation Yrotation Xrotation
							End Site #name: Head
							{
								OFFSET -0.019200 9.262405 2.362500
							}
						}
					}
					JOINT Spine2_LeftShoulder
					{
						OFFSET 0.000000 0.000000 0.000000
						CHANNELS 3 Zrotation Yrotation Xrotation
						JOINT LeftShoulder
						{
							OFFSET 5.616900 6.732201 -0.345700
							CHANNELS 3 Zrotation Yrotation Xrotation
							JOINT LeftArm
							{
								OFFSET 10.664888 -0.183372 -2.440700
								CHANNELS 3 Zrotation Yrotation Xrotation
								JOINT LeftForeArm
								{
									OFFSET 27.459126 0.000000 0.000000
									CHANNELS 3 Zrotation Yrotation Xrotation
									End Site #name: LeftHand
									{
										OFFSET 21.306858 0.000000 0.000000
									}
								}
							}
						}
					}
					JOINT Spine2_RightShoulder
					{
						OFFSET 0.000000 0.000000 0.000000
						CHANNELS 3 Zrotation Yrotation Xrotation
						JOINT RightShoulder
						{
							OFFSET -5.580300 6.737503 -0.344400
							CHANNELS 3 Zrotation Yrotation Xrotation
							JOINT RightArm
							{
								OFFSET -10.679335 -0.188484 -2.383900
								CHANNELS 3 Zrotation Yrotation Xrotation
								JOINT RightForeArm
								{
									OFFSET -27.503529 0.000000 0.000000
									CHANNELS 3 Zrotation Yrotation Xrotation
									End Site #name: RightHand
									{
										OFFSET -21.306808 0.000000 0.000000
									}
								}
							}
						}
					}
				}
			}
		}
	}
	JOINT Hips_LeftUpLeg
	{
		OFFSET 0.000000 0.000000 0.000000
		CHANNELS 3 Zrotation Yrotation Xrotation
		JOINT LeftUpLeg
		{
			OFFSET 6.857700 -6.739601 0.312100
			CHANNELS 3 Zrotation Yrotation Xrotation
			JOINT LeftLeg
			{
				OFFSET -0.367590 -34.731552 -4.572400
				CHANNELS 3 Zrotation Yrotation Xrotation
				End Site #name: LeftFoot
				{
					OFFSET 0.367590 -34.656704 -6.067400
				}
			}
		}
	}
	JOINT Hips_RightUpLeg
	{
		OFFSET 0.000000 0.000000 0.000000
		CHANNELS 3 Zrotation Yrotation Xrotation
		JOINT RightUpLeg
		{
			OFFSET -6.876100 -6.733299 0.301000
			CHANNELS 3 Zrotation Yrotation Xrotation
			JOINT RightLeg
			{
				OFFSET 0.347353 -34.795158 -4.515900
				CHANNELS 3 Zrotation Yrotation Xrotation
				End Site #name: RightFoot
				{
					OFFSET -0.347353 -34.589367 -6.070300
				}
			}
		}
	}
}
MOTION
Frames: 7
Frame Time: 0.041667
-0.562702 -0.083751 1.770876 7.916086 67.932236 1.938996 -0.000000 -0.000000 0.000000 -5.764069 -0.268624 -0.196766 0.467266 1.216058 -4.902167 0.000000 0.000000 0.000000 -2.610645 0.727750 0.490743 0.588888 -14.186138 1.387601 -4.640008 1.760507 3.206461 0.573473 -13.129811 -2.337724 -35.978987 -31.755071 1.047135 -18.930012 -78.678974 20.523143 0.039878 1.909666 -1.137799 10.049966 -9.920256 3.539564 22.762146 24.737622 -51.763975 -174.783886 54.496669 -174.812546 -0.000000 0.000000 0.000000 23.403396 -10.444854 -33.368980 25.501021 -1.555884 51.748380 -0.000000 -0.000000 -0.000000 -9.020686 -9.937561 -38.103795 7.696847 12.645011 84.167979 
-1.019606 -1.161513 5.083740 4.157394 70.818689 -8.199183 -0.000000 -0.000000 0.000000 -2.748895 -0.559220 3.856754 0.455011 1.110627 2.915064 0.000000 0.000000 0.000000 -1.478903 -1.207648 1.298646 -5.919644 -14.366856 0.355028 -1.947520 0.605586 5.082069 -1.914438 -11.953758 -3.177225 -37.719373 -30.270574 18.802128 -157.592396 -72.676828 160.236687 -0.738028 1.508783 -1.090703 12.983403 -17.860745 0.469181 -20.635262 45.366966 -82.230736 -176.506246 47.334526 179.522469 -0.000000 0.000000 0.000000 22.467982 4.486786 -35.150552 15.519713 3.614108 60.063236 -0.000000 -0.000000 -0.000000 -16.545332 -6.287649 -43.382627 0.325925 0.750847 75.567064 
-1.723073 -1.733082 9.200767 -0.516789 70.038645 -14.181672 -0.000000 0.000000 0.000000 0.264318 -0.945144 6.645769 0.753444 0.694304 2.065694 0.000000 0.000000 0.000000 -1.952881 -1.492171 0.416191 -7.396700 -12.989658 -1.653571 -2.169455 -0.197087 4.805505 -4.256583 -11.017664 -3.515597 -45.245787 -37.306871 28.193290 -160.755603 -69.131342 164.335901 -1.229117 0.680478 -0.791729 9.511952 -15.447279 1.286798 -22.532290 42.123351 -91.823267 173.376573 56.505644 177.385753 0.000000 0.000000 0.000000 22.059811 6.510860 -39.619351 8.946163 -0.404447 76.976592 -0.000000 -0.000000 0.000000 -30.911511 -2.857838 -35.813684 0.446944 1.278105 72.991973 
-2.422372 -2.511128 13.685360 0.475385 70.659101 -13.152988 -0.000000 0.000000 0.000000 0.208868 -1.769983 8.192684 0.738953 0.426875 1.276920 0.000000 0.000000 0.000000 -2.179287 -1.523022 0.417456 -6.972585 -11.018003 -0.758133 -1.842446 -0.722875 4.314805 -7.071947 -8.320541 -3.817645 -42.745998 -42.094989 26.255328 -148.686407 -77.010807 153.128937 -2.043937 0.299168 -0.987722 8.655115 -15.021079 0.773377 -33.801453 31.876943 -94.693064 168.224718 63.606739 174.252025 0.000000 0.000000 0.000000 22.554673 9.328216 -39.975095 1.239260 -2.893962 85.819988 -0.000000 -0.000000 0.000000 -37.514067 1.640363 -34.449588 -1.417590 0.482070 74.512520 
-3.110501 -3.284279 18.315462 0.918352 70.402813 -12.309432 -0.000000 0.000000 0.000000 0.241275 -1.764276 9.603060 0.613057 0.321940 1.235405 0.000000 0.000000 0.000000 -2.174299 -1.480164 1.518097 -6.617608 -8.243932 1.507908 -1.166293 -0.820245 3.642487 -9.283510 -3.843903 -4.462836 -37.863997 -42.809732 21.738431 -136.125690 -80.666747 141.430753 -2.870151 -0.006832 -0.970946 6.326789 -12.278932 0.590635 -40.304173 25.317177 -89.508260 164.438556 70.622364 170.022819 0.000000 0.000000 0.000000 23.034870 12.139851 -38.426502 -3.583505 -3.266283 87.799750 -0.000000 -0.000000 0.000000 -41.076902 5.721005 -32.661317 -3.035081 -0.131696 74.371652 
-3.774387 -3.793385 22.989168 0.937147 69.973415 -11.495686 -0.000000 0.000000 0.000000 0.379228 -1.452426 9.990575 0.479292 0.214220 1.476261 0.000000 0.000000 0.000000 -2.232298 -1.423028 2.501321 -6.577317 -5.266235 3.616362 -0.615464 -0.948205 3.169427 -10.541587 -0.480270 -4.985393 -34.639272 -42.426468 19.047761 -132.617530 -81.730459 138.564466 -3.440449 -0.411219 -0.613017 3.738122 -10.402476 1.119629 -43.236088 25.628940 -85.223416 162.217406 73.256490 167.451036 0.000000 0.000000 0.000000 24.408143 13.630732 -36.109570 -6.570181 -4.268932 84.406515 -0.000000 -0.000000 0.000000 -42.551508 6.232836 -34.555149 -4.419363 -0.829864 74.393030 
-4.390676 -3.957656 27.548369 0.128746 69.187232 -11.258775 -0.000000 0.000000 0.000000 0.614316 -1.177563 9.850130 0.358432 0.051515 1.726419 0.000000 0.000000 0.000000 -2.367099 -1.316248 3.461981 -6.404137 -2.725350 5.713073 -0.168745 -1.063236 2.820571 -11.127931 2.023377 -5.482056 -32.844854 -41.847976 17.053762 -142.190112 -80.677018 148.501128 -3.829248 -0.605749 0.020373 2.060368 -9.160450 1.843857 -45.172027 29.360997 -85.095934 163.361807 71.317538 169.023365 0.000000 0.000000 0.000000 24.966762 14.467013 -36.253395 -8.988669 -5.604565 80.990127 -0.000000 -0.000000 0.000000 -40.567212 4.622775 -37.011716 -5.856064 -2.302902 73.806736 
